<mxfile host="Electron" modified="2024-09-15T15:46:30.152Z" agent="Mozilla/5.0 (Windows NT 10.0; Win64; x64) AppleWebKit/537.36 (KHTML, like Gecko) draw.io/21.6.8 Chrome/114.0.5735.289 Electron/25.5.0 Safari/537.36" etag="JRlMx1IzrzrgQIcmbJR3" version="21.6.8" type="device">
  <diagram name="Страница — 1" id="uyU0utRxgrIfPwH5R2QK">
    <mxGraphModel dx="712" dy="852" grid="1" gridSize="10" guides="1" tooltips="1" connect="1" arrows="1" fold="1" page="1" pageScale="1" pageWidth="827" pageHeight="1169" math="0" shadow="0">
      <root>
        <mxCell id="0" />
        <mxCell id="1" parent="0" />
        <mxCell id="EqHUoWuTJfLzt4-MMqpr-1" value="#252424" style="rounded=0;whiteSpace=wrap;html=1;shadow=1;strokeColor=none;" vertex="1" parent="1">
          <mxGeometry x="80" y="120" width="80" height="40" as="geometry" />
        </mxCell>
        <mxCell id="EqHUoWuTJfLzt4-MMqpr-2" value="" style="rounded=0;whiteSpace=wrap;html=1;fillColor=#252424;shadow=1;strokeColor=none;" vertex="1" parent="1">
          <mxGeometry x="80" y="160" width="80" height="80" as="geometry" />
        </mxCell>
        <mxCell id="EqHUoWuTJfLzt4-MMqpr-3" value="#f2f1da" style="rounded=0;whiteSpace=wrap;html=1;shadow=1;strokeColor=none;" vertex="1" parent="1">
          <mxGeometry x="160" y="120" width="80" height="40" as="geometry" />
        </mxCell>
        <mxCell id="EqHUoWuTJfLzt4-MMqpr-4" value="" style="rounded=0;whiteSpace=wrap;html=1;fillColor=#f2f1da;shadow=1;strokeColor=none;" vertex="1" parent="1">
          <mxGeometry x="160" y="160" width="80" height="80" as="geometry" />
        </mxCell>
        <mxCell id="EqHUoWuTJfLzt4-MMqpr-5" value="#f04947" style="rounded=0;whiteSpace=wrap;html=1;shadow=1;strokeColor=none;" vertex="1" parent="1">
          <mxGeometry x="240" y="120" width="80" height="40" as="geometry" />
        </mxCell>
        <mxCell id="EqHUoWuTJfLzt4-MMqpr-6" value="" style="rounded=0;whiteSpace=wrap;html=1;fillColor=#f04947;shadow=1;strokeColor=none;" vertex="1" parent="1">
          <mxGeometry x="240" y="160" width="80" height="80" as="geometry" />
        </mxCell>
        <mxCell id="EqHUoWuTJfLzt4-MMqpr-7" value="#60bbaf" style="rounded=0;whiteSpace=wrap;html=1;shadow=1;strokeColor=none;" vertex="1" parent="1">
          <mxGeometry x="320" y="120" width="80" height="40" as="geometry" />
        </mxCell>
        <mxCell id="EqHUoWuTJfLzt4-MMqpr-8" value="" style="rounded=0;whiteSpace=wrap;html=1;fillColor=#60bbaf;shadow=1;strokeColor=none;" vertex="1" parent="1">
          <mxGeometry x="320" y="160" width="80" height="80" as="geometry" />
        </mxCell>
        <mxCell id="EqHUoWuTJfLzt4-MMqpr-9" value="#cd905e" style="rounded=0;whiteSpace=wrap;html=1;shadow=1;strokeColor=none;" vertex="1" parent="1">
          <mxGeometry x="400" y="120" width="80" height="40" as="geometry" />
        </mxCell>
        <mxCell id="EqHUoWuTJfLzt4-MMqpr-10" value="" style="rounded=0;whiteSpace=wrap;html=1;fillColor=#cd905e;shadow=1;strokeColor=none;" vertex="1" parent="1">
          <mxGeometry x="400" y="160" width="80" height="80" as="geometry" />
        </mxCell>
        <mxCell id="EqHUoWuTJfLzt4-MMqpr-11" value="#282622" style="rounded=0;whiteSpace=wrap;html=1;shadow=1;strokeColor=none;" vertex="1" parent="1">
          <mxGeometry x="80" y="380" width="80" height="40" as="geometry" />
        </mxCell>
        <mxCell id="EqHUoWuTJfLzt4-MMqpr-12" value="" style="rounded=0;whiteSpace=wrap;html=1;fillColor=#282622;shadow=1;strokeColor=none;" vertex="1" parent="1">
          <mxGeometry x="80" y="420" width="80" height="80" as="geometry" />
        </mxCell>
        <mxCell id="EqHUoWuTJfLzt4-MMqpr-13" value="#efeed9" style="rounded=0;whiteSpace=wrap;html=1;shadow=1;strokeColor=none;" vertex="1" parent="1">
          <mxGeometry x="160" y="380" width="80" height="40" as="geometry" />
        </mxCell>
        <mxCell id="EqHUoWuTJfLzt4-MMqpr-14" value="" style="rounded=0;whiteSpace=wrap;html=1;fillColor=#efeed9;shadow=1;strokeColor=none;" vertex="1" parent="1">
          <mxGeometry x="160" y="420" width="80" height="80" as="geometry" />
        </mxCell>
        <mxCell id="EqHUoWuTJfLzt4-MMqpr-15" value="#f24a4b" style="rounded=0;whiteSpace=wrap;html=1;shadow=1;strokeColor=none;" vertex="1" parent="1">
          <mxGeometry x="240" y="380" width="80" height="40" as="geometry" />
        </mxCell>
        <mxCell id="EqHUoWuTJfLzt4-MMqpr-16" value="" style="rounded=0;whiteSpace=wrap;html=1;fillColor=#f24a4b;shadow=1;strokeColor=none;" vertex="1" parent="1">
          <mxGeometry x="240" y="420" width="80" height="80" as="geometry" />
        </mxCell>
        <mxCell id="EqHUoWuTJfLzt4-MMqpr-17" value="#4deef0" style="rounded=0;whiteSpace=wrap;html=1;shadow=1;strokeColor=none;" vertex="1" parent="1">
          <mxGeometry x="320" y="380" width="80" height="40" as="geometry" />
        </mxCell>
        <mxCell id="EqHUoWuTJfLzt4-MMqpr-18" value="" style="rounded=0;whiteSpace=wrap;html=1;fillColor=#4deef0;shadow=1;strokeColor=none;" vertex="1" parent="1">
          <mxGeometry x="320" y="420" width="80" height="80" as="geometry" />
        </mxCell>
        <mxCell id="EqHUoWuTJfLzt4-MMqpr-19" value="#f2924c" style="rounded=0;whiteSpace=wrap;html=1;shadow=1;strokeColor=none;" vertex="1" parent="1">
          <mxGeometry x="400" y="380" width="80" height="40" as="geometry" />
        </mxCell>
        <mxCell id="EqHUoWuTJfLzt4-MMqpr-20" value="" style="rounded=0;whiteSpace=wrap;html=1;fillColor=#f2924c;shadow=1;strokeColor=none;" vertex="1" parent="1">
          <mxGeometry x="400" y="420" width="80" height="80" as="geometry" />
        </mxCell>
        <mxCell id="EqHUoWuTJfLzt4-MMqpr-21" value="#272523" style="rounded=0;whiteSpace=wrap;html=1;shadow=1;strokeColor=none;" vertex="1" parent="1">
          <mxGeometry x="80" y="250" width="80" height="40" as="geometry" />
        </mxCell>
        <mxCell id="EqHUoWuTJfLzt4-MMqpr-22" value="" style="rounded=0;whiteSpace=wrap;html=1;fillColor=#272523;shadow=1;strokeColor=none;" vertex="1" parent="1">
          <mxGeometry x="80" y="290" width="80" height="80" as="geometry" />
        </mxCell>
        <mxCell id="EqHUoWuTJfLzt4-MMqpr-23" value="#f1f0da" style="rounded=0;whiteSpace=wrap;html=1;shadow=1;strokeColor=none;" vertex="1" parent="1">
          <mxGeometry x="160" y="250" width="80" height="40" as="geometry" />
        </mxCell>
        <mxCell id="EqHUoWuTJfLzt4-MMqpr-24" value="" style="rounded=0;whiteSpace=wrap;html=1;fillColor=#f1f0da;shadow=1;strokeColor=none;" vertex="1" parent="1">
          <mxGeometry x="160" y="290" width="80" height="80" as="geometry" />
        </mxCell>
        <mxCell id="EqHUoWuTJfLzt4-MMqpr-25" value="#f14a49" style="rounded=0;whiteSpace=wrap;html=1;shadow=1;strokeColor=none;" vertex="1" parent="1">
          <mxGeometry x="240" y="250" width="80" height="40" as="geometry" />
        </mxCell>
        <mxCell id="EqHUoWuTJfLzt4-MMqpr-26" value="" style="rounded=0;whiteSpace=wrap;html=1;fillColor=#f14a49;shadow=1;strokeColor=none;" vertex="1" parent="1">
          <mxGeometry x="240" y="290" width="80" height="80" as="geometry" />
        </mxCell>
        <mxCell id="EqHUoWuTJfLzt4-MMqpr-27" value="#57d4d0" style="rounded=0;whiteSpace=wrap;html=1;shadow=1;strokeColor=none;" vertex="1" parent="1">
          <mxGeometry x="320" y="250" width="80" height="40" as="geometry" />
        </mxCell>
        <mxCell id="EqHUoWuTJfLzt4-MMqpr-28" value="" style="rounded=0;whiteSpace=wrap;html=1;fillColor=#57d4d0;shadow=1;strokeColor=none;" vertex="1" parent="1">
          <mxGeometry x="320" y="290" width="80" height="80" as="geometry" />
        </mxCell>
        <mxCell id="EqHUoWuTJfLzt4-MMqpr-29" value="#e09155" style="rounded=0;whiteSpace=wrap;html=1;shadow=1;strokeColor=none;" vertex="1" parent="1">
          <mxGeometry x="400" y="250" width="80" height="40" as="geometry" />
        </mxCell>
        <mxCell id="EqHUoWuTJfLzt4-MMqpr-30" value="" style="rounded=0;whiteSpace=wrap;html=1;fillColor=#e09155;shadow=1;strokeColor=none;" vertex="1" parent="1">
          <mxGeometry x="400" y="290" width="80" height="80" as="geometry" />
        </mxCell>
      </root>
    </mxGraphModel>
  </diagram>
</mxfile>
